<svg width="117" height="173" viewBox="0 0 117 173" fill="none" xmlns="http://www.w3.org/2000/svg">
<g id="Group">
<g id="Group_2">
<g id="Group_3">
<g id="Group_4">
<g id="Group_5">
<g id="Group_6">
<path id="Vector" d="M71.4346 52.7183C71.4346 52.7183 89.8094 77.6484 94.0022 90.0709C98.1951 102.493 88.0215 111.312 88.0215 111.312L78.5716 114.859C78.5716 114.852 68.8592 71.0008 71.4346 52.7183Z" fill="#006ED3"/>
</g>
</g>
</g>
</g>
<g id="Group_7">
<g id="Group_8">
<g id="Group_9">
<g id="Group_10">
<g id="Group_11">
<path id="Vector_2" d="M69.8092 122.549C61.7782 125.21 42.1547 132.191 33.6342 129.367C33.2724 129.246 32.9389 129.112 32.6197 128.956C31.6903 128.502 30.9454 127.891 30.4204 127.097C27.0789 122.01 23.7657 100.663 25.2556 88.1195C25.44 86.5517 25.5323 84.849 25.5606 83.0611C25.6032 80.4291 25.5181 77.6126 25.4046 74.7818C24.986 64.1259 23.3046 56.7689 27.8664 54.1794C31.9599 51.8524 37.1389 50.0362 40.4378 49.2487C42.4811 48.7591 45.8297 47.7375 48.178 47.7801L58.3373 49.6247C58.3373 49.6247 67.1061 51.0861 69.1281 52.5831C71.15 54.0729 72.1858 60.6496 75.8395 66.6728C79.4932 72.6961 80.2878 78.7406 76.7973 85.3527C73.7608 91.1063 74.2929 88.9212 73.8956 98.3569C73.4132 109.921 85.4951 117.356 69.8092 122.549Z" fill="white"/>
</g>
</g>
</g>
</g>
</g>
<g id="Group_12" opacity="0.8">
<g id="Group_13" opacity="0.8">
<path id="Vector_3" opacity="0.8" d="M42.8359 68.3688C42.8359 68.3688 53.8466 65.5239 67.9009 68.1489L68.2414 77.8613C68.2414 77.8613 52.7895 76.1444 43.0559 78.6204L42.8359 68.3688Z" fill="#CED3E6"/>
</g>
</g>
<g id="Group_14">
<g id="Group_15">
<g id="Group_16">
<g id="Group_17" opacity="0.8">
<path id="Vector_4" opacity="0.8" d="M55.4865 60.1672C55.3375 60.1672 55.1886 60.1601 55.0325 60.153C49.0163 59.8409 43.4968 54.5342 43.2698 54.3071C43.1066 54.1511 43.1066 53.8886 43.2627 53.7254C43.4188 53.5622 43.6813 53.5622 43.8444 53.7183C43.9012 53.7679 49.3711 59.0392 55.0751 59.33C60.5378 59.6209 61.1976 54.2007 61.226 53.9666C61.2544 53.7396 61.453 53.5764 61.6801 53.6048C61.9071 53.6261 62.0702 53.8318 62.0419 54.0588C62.0419 54.1227 61.3182 60.1672 55.4865 60.1672Z" fill="#CED3E6"/>
</g>
</g>
</g>
</g>
<g id="Group_18">
<g id="Group_19">
<g id="Group_20">
<g id="Group_21">
<g id="Group_22" opacity="0.8">
<path id="Vector_5" opacity="0.8" d="M38.4304 108.793C38.3878 108.758 38.3523 108.722 38.3169 108.672C38.1963 108.467 38.2601 108.204 38.4588 108.084C46.284 103.344 53.79 101.677 58.7065 101.11C64.0487 100.492 67.4895 100.989 67.6314 101.017C67.8655 101.053 68.0287 101.273 67.9932 101.507C67.9578 101.741 67.7378 101.904 67.5037 101.869C67.4682 101.862 64.0061 101.365 58.7704 101.975C53.9461 102.536 46.5749 104.182 38.8986 108.829C38.7567 108.907 38.5723 108.892 38.4304 108.793Z" fill="#CED3E6"/>
</g>
</g>
</g>
</g>
</g>
<g id="Group_23">
<g id="Group_24">
<g id="Group_25">
<path id="Vector_6" d="M48.6614 126.416C41.4321 124.124 34.8909 119.513 30.4285 115.405C30.0737 115.079 29.7332 114.76 29.4069 114.44C27.094 112.191 25.4623 113.348 24.7529 112.057C22.0498 107.112 23.5823 87.7083 24.7529 80.5783C25.9235 73.4554 21.0069 60.4015 23.6532 55.7333C26.2995 51.0651 35.4159 49.4334 35.4159 49.4334C35.4159 49.4334 34.1247 47.9293 36.5723 46.2054C39.0199 44.4814 45.5327 45.1979 45.5327 45.1979C45.8449 76.0378 50.2151 104.678 48.6614 126.416Z" fill="#369FFF"/>
</g>
</g>
</g>
<g id="Group_26">
<g id="Group_27">
<g id="Group_28">
<path id="Vector_7" d="M41.5518 117.576C41.3532 117.576 41.1829 117.434 41.1546 117.236C37.8627 95.8458 41.1191 55.6057 41.1546 55.2013C41.1758 54.9814 41.3674 54.8182 41.5873 54.8324C41.8073 54.8537 41.9775 55.0452 41.9562 55.2652C41.9208 55.6696 38.6786 95.8104 41.9562 117.108C41.9917 117.328 41.8356 117.534 41.6157 117.569C41.5944 117.576 41.5731 117.576 41.5518 117.576Z" fill="white"/>
</g>
</g>
</g>
<g id="Group_29">
<g id="Group_30">
<g id="Group_31">
<g id="Group_32">
<path id="Vector_8" d="M48.1712 120.783C47.9796 120.783 47.8093 120.648 47.7739 120.45C43.4675 95.8812 43.127 53.4844 43.127 53.0587C43.127 52.8388 43.3043 52.6543 43.5242 52.6543C43.7442 52.6543 43.9286 52.8317 43.9286 53.0516C43.9286 53.4773 44.2763 95.8032 48.5684 120.308C48.6039 120.528 48.462 120.733 48.2421 120.776C48.2137 120.783 48.1924 120.783 48.1712 120.783Z" fill="#006ED3"/>
</g>
</g>
</g>
</g>
<g id="Group_33">
<g id="Group_34">
<g id="Group_35">
<g id="Group_36">
<path id="Vector_9" d="M41.0273 52.8177C40.9918 52.8177 40.9563 52.8106 40.9208 52.8035C37.5155 51.8954 35.4297 49.8876 35.3375 49.8025C35.1814 49.6464 35.1743 49.391 35.3304 49.2349C35.4865 49.0788 35.7418 49.0718 35.8979 49.2278C35.9192 49.2491 37.927 51.1788 41.1195 52.0302C41.3323 52.0869 41.46 52.3069 41.4033 52.5268C41.3678 52.6971 41.2046 52.8177 41.0273 52.8177Z" fill="#006ED3"/>
</g>
</g>
</g>
</g>
<g id="Group_37">
<g id="Group_38">
<g id="Group_39">
<path id="Vector_10" d="M79.9836 112.951C79.9836 112.951 77.4083 121.627 67.8165 125.763C66.6246 102.238 63.9287 75.371 60.4453 46.7943C60.4453 46.7943 64.1132 46.1487 65.6385 48.2487C66.2983 49.1497 66.4402 50.6821 66.4402 50.6821C66.4402 50.6821 68.3131 51.0439 70.3634 52.0017C72.4138 52.9594 72.1796 54.2719 72.6692 57.6063C73.1587 60.9408 78.3093 66.0985 79.9836 73.0866C81.6579 80.0747 77.2168 84.53 75.8333 90.3972C74.4428 96.2502 79.9836 112.951 79.9836 112.951Z" fill="#369FFF"/>
</g>
</g>
</g>
<g id="Group_40">
<g id="Group_41">
<g id="Group_42">
<path id="Vector_11" d="M71.7462 116.59C71.5263 116.59 71.3489 116.42 71.3418 116.2C70.4124 84.1965 64.5665 55.5985 64.5098 55.3147C64.4672 55.0948 64.602 54.8819 64.8219 54.8394C65.0419 54.7968 65.2547 54.9316 65.2973 55.1515C65.354 55.4353 71.2141 84.0972 72.1435 116.179C72.1506 116.399 71.9732 116.59 71.7533 116.59C71.7533 116.59 71.7533 116.59 71.7462 116.59Z" fill="white"/>
</g>
</g>
</g>
<g id="Group_43">
<g id="Group_44">
<g id="Group_45">
<g id="Group_46">
<path id="Vector_12" d="M62.9221 53.7041C62.7305 53.7041 62.5602 53.5622 62.5248 53.3706C62.4893 53.1507 62.6383 52.945 62.8511 52.9024C62.8795 52.8953 65.4619 52.4271 66.0507 50.5612C66.1146 50.3484 66.3416 50.2278 66.5544 50.2987C66.7673 50.3626 66.8808 50.5896 66.8169 50.8024C66.072 53.1436 63.1065 53.6757 62.9859 53.697C62.9646 53.697 62.9433 53.7041 62.9221 53.7041Z" fill="#006ED3"/>
</g>
</g>
</g>
</g>
<g id="Group_47">
<g id="Group_48">
<g id="Group_49">
<g id="Group_50">
<path id="Vector_13" d="M70.8095 116.59C70.6109 116.59 70.4335 116.441 70.4122 116.235C67.5744 92.639 63.0907 54.9316 63.0481 54.5556C63.0198 54.3357 63.1829 54.1371 63.4029 54.1087C63.6228 54.0803 63.8214 54.2435 63.8498 54.4634C63.8924 54.8394 68.3761 92.5539 71.2139 116.143C71.2423 116.363 71.0862 116.562 70.8592 116.59C70.8379 116.59 70.8237 116.59 70.8095 116.59Z" fill="#006ED3"/>
</g>
</g>
</g>
</g>
</g>
<g id="Group_51">
<g id="Group_52">
<g id="Group_53">
<g id="Group_54">
<g id="Group_55">
<g id="Group_56">
<path id="Vector_14" d="M46.9797 133.532C48.207 134.412 50.1367 135.327 53.0384 136.249C69.4977 141.485 84.5877 133.035 84.5877 133.035C85.5029 128.53 84.9354 123.408 83.4171 121.535C83.8925 120.868 83.5803 120.074 83.5803 120.074L98.7271 104.352C90.1144 111.489 79.4584 113.823 71.1649 118.839C71.1649 118.839 71.1649 118.839 71.1578 118.839C68.767 120.286 66.6173 121.556 65.0423 122.436C62.6373 123.784 59.5725 123.919 56.5644 123.5C50.7043 122.691 45.0855 119.804 45.0855 119.804C45.0855 119.804 26.2211 111.255 22.6881 111.539C19.9425 111.759 34.7416 127.204 46.9797 133.532Z" fill="#FF993A"/>
</g>
</g>
</g>
</g>
</g>
</g>
<g id="Group_57">
<g id="Group_58">
<g id="Group_59">
<g id="Group_60">
<g id="Group_61">
<path id="Vector_15" d="M76.1309 146.714C76.1309 146.714 71.2782 145.316 69.7813 143.741L66.4043 151.687L77.8903 155.27C77.8974 155.27 78.0535 148.289 76.1309 146.714Z" fill="#EA9B7A"/>
</g>
</g>
</g>
<g id="Group_62">
<g id="Group_63">
<g id="Group_64">
<g id="Group_65">
<g id="Group_66">
<path id="Vector_16" d="M103.849 169.664L88.9997 136.71C88.4464 136.668 87.7511 136.817 86.9707 137.101C84.0903 138.15 80.0394 141.045 77.4357 142.741C77.1306 142.939 76.8468 143.124 76.5843 143.287C76.1445 143.557 75.7685 143.769 75.4847 143.904C73.1931 144.933 74.3992 146.167 74.3992 146.167C78.6701 148.303 76.0664 154.631 78.6701 156.107C78.6701 156.107 79.7769 156.752 83.3099 158.306C86.843 159.86 90.3974 163.613 93.6892 166.685C97.9388 170.658 100.606 171.119 102.132 170.757C103.352 170.473 103.849 169.664 103.849 169.664Z" fill="#006ED3"/>
</g>
</g>
</g>
</g>
<g id="Group_67">
<g id="Group_68">
<g id="Group_69">
<g id="Group_70">
<g id="Group_71">
<g id="Group_72">
<path id="Vector_17" d="M103.849 169.664L88.9997 136.71C88.4464 136.668 87.7511 136.817 86.9707 137.101L102.132 170.757C103.352 170.473 103.849 169.664 103.849 169.664Z" fill="#369FFF"/>
</g>
</g>
</g>
</g>
</g>
</g>
<g id="Group_73">
<g id="Group_74">
<g id="Group_75">
<g id="Group_76">
<g id="Group_77">
<g id="Group_78">
<g id="Group_79">
<g id="Group_80">
<g id="Group_81">
<g id="Group_82">
<g id="Group_83">
<g id="Group_84">
<path id="Vector_18" d="M90.5183 140.073L90.0785 139.094C89.4045 140.577 88.0991 142.258 85.6018 143.245C82.2745 144.55 79.1955 143.585 77.4431 142.748C77.1381 142.947 76.8543 143.131 76.5918 143.294C78.3725 144.252 81.9269 145.614 85.914 144.053C88.2978 143.103 89.7025 141.556 90.5183 140.073Z" fill="#369FFF"/>
</g>
</g>
</g>
</g>
</g>
</g>
</g>
</g>
</g>
</g>
</g>
</g>
<g id="Group_85">
<g id="Group_86">
<g id="Group_87">
<g id="Group_88">
<g id="Group_89">
<g id="Group_90">
<g id="Group_91">
<g id="Group_92">
<g id="Group_93">
<g id="Group_94">
<g id="Group_95">
<path id="Vector_19" d="M85.0056 156.873C84.8992 156.632 84.6296 156.483 84.3529 156.532C84.0266 156.589 83.8137 156.901 83.8705 157.228L84.2891 159.519C84.3458 159.846 84.658 160.058 84.9843 160.002C85.3107 159.945 85.5235 159.633 85.4667 159.306L85.0482 157.015C85.0411 156.965 85.0269 156.916 85.0056 156.873Z" fill="white"/>
</g>
</g>
</g>
</g>
</g>
</g>
</g>
</g>
</g>
</g>
</g>
<g id="Group_96">
<g id="Group_97">
<g id="Group_98">
<g id="Group_99">
<g id="Group_100">
<g id="Group_101">
<g id="Group_102">
<g id="Group_103">
<g id="Group_104">
<g id="Group_105">
<g id="Group_106">
<path id="Vector_20" d="M82.3728 155.603C82.2664 155.362 81.9968 155.213 81.7201 155.262C81.3938 155.319 81.1809 155.631 81.2377 155.958L81.6562 158.249C81.713 158.576 82.0252 158.788 82.3515 158.732C82.6779 158.675 82.8907 158.363 82.8339 158.036L82.4154 155.745C82.4083 155.688 82.3941 155.646 82.3728 155.603Z" fill="white"/>
</g>
</g>
</g>
</g>
</g>
</g>
</g>
</g>
</g>
</g>
</g>
<g id="Group_107">
<g id="Group_108">
<g id="Group_109">
<g id="Group_110">
<g id="Group_111">
<g id="Group_112">
<g id="Group_113">
<g id="Group_114">
<g id="Group_115">
<g id="Group_116">
<g id="Group_117">
<path id="Vector_21" d="M87.1345 158.391C87.0281 158.15 86.7585 158.001 86.4818 158.051C86.1555 158.107 85.9426 158.419 85.9994 158.746L86.418 161.037C86.4747 161.364 86.7869 161.577 87.1132 161.52C87.4396 161.463 87.6524 161.151 87.5957 160.825L87.1771 158.533C87.17 158.483 87.1558 158.434 87.1345 158.391Z" fill="white"/>
</g>
</g>
</g>
</g>
</g>
</g>
</g>
</g>
</g>
</g>
</g>
<g id="Group_118">
<g id="Group_119">
<g id="Group_120">
<g id="Group_121">
<g id="Group_122">
<g id="Group_123">
<g id="Group_124">
<g id="Group_125">
<g id="Group_126">
<g id="Group_127">
<g id="Group_128">
<path id="Vector_22" d="M89.2126 159.931C89.1062 159.689 88.8366 159.54 88.5599 159.59C88.2336 159.647 88.0208 159.959 88.0775 160.285L88.4961 162.577C88.5528 162.903 88.865 163.116 89.1914 163.059C89.5177 163.003 89.7305 162.69 89.6738 162.364L89.2552 160.073C89.241 160.023 89.2268 159.973 89.2126 159.931Z" fill="white"/>
</g>
</g>
</g>
</g>
</g>
</g>
</g>
</g>
</g>
</g>
</g>
<g id="Group_129">
<g id="Group_130">
<g id="Group_131">
<g id="Group_132">
<g id="Group_133">
<g id="Group_134">
<g id="Group_135">
<g id="Group_136">
<g id="Group_137">
<g id="Group_138">
<g id="Group_139">
<path id="Vector_23" d="M91.2849 161.697C91.1785 161.456 90.9089 161.307 90.6322 161.357C90.3059 161.413 90.093 161.726 90.1498 162.052L90.5684 164.343C90.6251 164.67 90.9373 164.883 91.2636 164.826C91.59 164.769 91.8028 164.457 91.746 164.131L91.3275 161.839C91.3204 161.789 91.3062 161.74 91.2849 161.697Z" fill="white"/>
</g>
</g>
</g>
</g>
</g>
</g>
</g>
</g>
</g>
</g>
</g>
<g id="Group_140">
<g id="Group_141">
<g id="Group_142">
<g id="Group_143">
<g id="Group_144">
<g id="Group_145">
<g id="Group_146">
<g id="Group_147">
<g id="Group_148">
<g id="Group_149">
<g id="Group_150">
<path id="Vector_24" d="M93.2927 163.726C93.1863 163.485 92.9167 163.336 92.64 163.386C92.3137 163.442 92.1008 163.754 92.1576 164.081L92.5762 166.372C92.6329 166.699 92.9451 166.911 93.2714 166.855C93.5978 166.798 93.8106 166.486 93.7539 166.159L93.3353 163.868C93.3211 163.811 93.3069 163.769 93.2927 163.726Z" fill="white"/>
</g>
</g>
</g>
</g>
</g>
</g>
</g>
</g>
</g>
</g>
</g>
</g>
</g>
<g id="Group_151">
<g id="Group_152">
<g id="Group_153">
<path id="Vector_25" d="M22.6952 111.539C22.6952 111.539 10.7552 105.097 3.8451 110.078C-8.79733 119.187 12.6565 136.703 37.2035 145.259C61.7506 153.815 69.7177 152.645 69.7177 152.645C69.7177 152.645 75.0528 151.176 73.1586 142.535C73.1586 142.535 59.0121 137.157 51.648 131.524C44.2768 125.884 39.2609 118.981 22.6952 111.539Z" fill="#FF993A"/>
</g>
</g>
</g>
<g id="Group_154">
<g id="Group_155">
<g id="Group_156">
<g id="Group_157">
<g id="Group_158">
<path id="Vector_26" d="M72.1929 145.046C67.0422 143.812 56.5565 138.995 44.134 132.177C34.8402 127.076 24.1275 120.556 22.5525 118.293C21.7012 117.073 21.4883 116.072 21.914 115.32C22.5525 114.199 24.3971 114.086 25.2342 114.093C25.4471 114.093 25.6173 114.278 25.6032 114.49C25.589 114.689 25.4258 114.838 25.2271 114.838C24.4042 114.831 22.964 114.973 22.5596 115.689C22.2191 116.285 22.7015 117.2 23.1626 117.86C24.4326 119.684 33.4 125.43 44.4888 131.517C54.038 136.76 66.3754 142.876 72.3631 144.316L72.1929 145.046Z" fill="#FF7E07"/>
</g>
</g>
</g>
</g>
</g>
<g id="Group_159">
<g id="Group_160">
<g id="Group_161">
<g id="Group_162">
<g id="Group_163">
<path id="Vector_27" d="M71.221 141.386C70.6392 145.926 69.4615 150.055 66.9004 153.226C66.9004 153.226 69.0997 154.809 71.1074 153.673C72.6399 152.808 75.5983 145.713 74.4702 141.925C73.1861 141.223 72.0794 140.974 71.221 141.386Z" fill="#FF7E07"/>
</g>
</g>
</g>
</g>
</g>
</g>
<g id="Group_164">
<g id="Group_165">
<g id="Group_166">
<g id="Group_167">
<path id="Vector_28" d="M40.0767 145.813C40.0767 145.813 44.9577 144.869 46.3412 143.195L50.2361 150.892L39.0196 155.234C39.0125 155.241 38.2605 147.515 40.0767 145.813Z" fill="#EA9B7A"/>
</g>
</g>
<g id="Group_168">
<g id="Group_169">
<g id="Group_170">
<g id="Group_171">
<path id="Vector_29" d="M14.082 171.339L26.6961 137.47C27.2495 137.384 27.9447 137.491 28.7464 137.725C31.6906 138.583 35.9261 141.194 38.6362 142.719C38.9554 142.897 39.2463 143.06 39.523 143.202C39.9841 143.443 40.3672 143.635 40.6652 143.741C43.0206 144.614 42.0415 145.281 42.0415 145.281C37.4017 147.459 40.8 154.482 38.3027 156.135C38.3027 156.135 37.2385 156.852 33.819 158.64C30.3994 160.427 27.1005 164.407 24.0215 167.692C20.0485 171.935 17.4165 172.58 15.8698 172.318C14.6354 172.112 14.082 171.339 14.082 171.339Z" fill="#006ED3"/>
</g>
</g>
</g>
<g id="Group_172">
<g id="Group_173">
<g id="Group_174">
<g id="Group_175">
<g id="Group_176">
<path id="Vector_30" d="M14.082 171.339L26.6961 137.47C27.2495 137.384 27.9447 137.491 28.7464 137.725L15.8628 172.318C14.6354 172.112 14.082 171.339 14.082 171.339Z" fill="#369FFF"/>
</g>
</g>
</g>
</g>
</g>
<g id="Group_177">
<g id="Group_178">
<g id="Group_179">
<g id="Group_180">
<g id="Group_181">
<g id="Group_182">
<g id="Group_183">
<g id="Group_184">
<g id="Group_185">
<g id="Group_186">
<g id="Group_187">
<path id="Vector_31" d="M25.4043 140.924L25.7803 139.917C26.5536 141.35 27.9654 142.946 30.5265 143.755C33.9319 144.841 36.94 143.67 38.6356 142.712C38.9548 142.89 39.2457 143.053 39.5224 143.195C37.8126 144.273 34.3505 145.869 30.2711 144.571C27.8235 143.805 26.3195 142.343 25.4043 140.924Z" fill="#369FFF"/>
</g>
</g>
</g>
</g>
</g>
</g>
</g>
</g>
</g>
</g>
</g>
<g id="Group_188">
<g id="Group_189">
<g id="Group_190">
<g id="Group_191">
<g id="Group_192">
<g id="Group_193">
<g id="Group_194">
<g id="Group_195">
<g id="Group_196">
<g id="Group_197">
<path id="Vector_32" d="M32.0242 157.32C32.1164 157.072 32.3718 156.901 32.6485 156.937C32.9748 156.972 33.209 157.27 33.1735 157.597L32.911 159.909C32.8755 160.236 32.5775 160.47 32.2512 160.434C31.9248 160.399 31.6907 160.101 31.7262 159.775L31.9887 157.462C31.9958 157.412 32.01 157.362 32.0242 157.32Z" fill="white"/>
</g>
</g>
</g>
</g>
</g>
</g>
</g>
</g>
</g>
</g>
<g id="Group_198">
<g id="Group_199">
<g id="Group_200">
<g id="Group_201">
<g id="Group_202">
<g id="Group_203">
<g id="Group_204">
<g id="Group_205">
<g id="Group_206">
<g id="Group_207">
<path id="Vector_33" d="M34.5711 155.873C34.6633 155.624 34.9187 155.454 35.1954 155.49C35.5217 155.525 35.7558 155.823 35.7204 156.149L35.4579 158.462C35.4224 158.788 35.1244 159.023 34.7981 158.987C34.4717 158.952 34.2376 158.654 34.2731 158.327L34.5356 156.015C34.5427 155.965 34.5569 155.915 34.5711 155.873Z" fill="white"/>
</g>
</g>
</g>
</g>
</g>
</g>
</g>
</g>
</g>
</g>
<g id="Group_208">
<g id="Group_209">
<g id="Group_210">
<g id="Group_211">
<g id="Group_212">
<g id="Group_213">
<g id="Group_214">
<g id="Group_215">
<g id="Group_216">
<g id="Group_217">
<path id="Vector_34" d="M30.0086 158.98C30.1008 158.732 30.3562 158.569 30.6329 158.597C30.9592 158.632 31.1933 158.93 31.1579 159.257L30.8954 161.57C30.8599 161.896 30.5619 162.13 30.2356 162.095C29.9092 162.059 29.6751 161.761 29.7106 161.435L29.9731 159.122C29.9802 159.072 29.9944 159.023 30.0086 158.98Z" fill="white"/>
</g>
</g>
</g>
</g>
</g>
</g>
</g>
</g>
</g>
</g>
<g id="Group_218">
<g id="Group_219">
<g id="Group_220">
<g id="Group_221">
<g id="Group_222">
<g id="Group_223">
<g id="Group_224">
<g id="Group_225">
<g id="Group_226">
<g id="Group_227">
<path id="Vector_35" d="M28.0379 160.654C28.1301 160.406 28.3855 160.243 28.6622 160.271C28.9885 160.307 29.2226 160.605 29.1872 160.931L28.9247 163.244C28.8892 163.57 28.5912 163.804 28.2649 163.769C27.9385 163.733 27.7044 163.435 27.7399 163.109L28.0024 160.796C28.0095 160.747 28.0237 160.697 28.0379 160.654Z" fill="white"/>
</g>
</g>
</g>
</g>
</g>
</g>
</g>
</g>
</g>
</g>
<g id="Group_228">
<g id="Group_229">
<g id="Group_230">
<g id="Group_231">
<g id="Group_232">
<g id="Group_233">
<g id="Group_234">
<g id="Group_235">
<g id="Group_236">
<g id="Group_237">
<path id="Vector_36" d="M26.0867 162.556C26.1789 162.307 26.4343 162.144 26.711 162.173C27.0373 162.208 27.2715 162.506 27.236 162.832L26.9735 165.145C26.938 165.472 26.6401 165.706 26.3137 165.67C25.9874 165.635 25.7532 165.337 25.7887 165.01L26.0512 162.698C26.0583 162.648 26.0725 162.598 26.0867 162.556Z" fill="white"/>
</g>
</g>
</g>
</g>
</g>
</g>
</g>
</g>
</g>
</g>
<g id="Group_238">
<g id="Group_239">
<g id="Group_240">
<g id="Group_241">
<g id="Group_242">
<g id="Group_243">
<g id="Group_244">
<g id="Group_245">
<g id="Group_246">
<g id="Group_247">
<path id="Vector_37" d="M24.2195 164.705C24.3117 164.457 24.5671 164.287 24.8438 164.322C25.1702 164.358 25.4043 164.656 25.3688 164.982L25.1063 167.295C25.0708 167.621 24.7729 167.855 24.4465 167.82C24.1202 167.784 23.886 167.486 23.9215 167.16L24.184 164.847C24.1911 164.797 24.2053 164.755 24.2195 164.705Z" fill="white"/>
</g>
</g>
</g>
</g>
</g>
</g>
</g>
</g>
</g>
</g>
</g>
</g>
<g id="Group_248">
<g id="Group_249">
<g id="Group_250">
<g id="Group_251">
<g id="Group_252">
<path id="Vector_38" d="M93.8593 106.303C93.8593 106.303 105.154 98.7901 112.497 103.118C125.927 111.028 106.168 130.439 82.5081 141.208C58.855 151.978 50.8098 151.545 50.8098 151.545C50.8098 151.545 45.3683 150.573 46.4537 141.79C46.4537 141.79 60.0469 135.135 66.8647 128.85C73.6825 122.571 78.0457 115.235 93.8593 106.303Z" fill="#FF993A"/>
</g>
</g>
</g>
</g>
</g>
<g id="Group_253">
<g id="Group_254">
<g id="Group_255">
<path id="Vector_39" d="M73.2013 145.259C71.8959 145.685 70.5764 146.118 69.2071 146.55C63.9146 148.218 57.8701 149.963 52.4002 151.304L52.3789 152.084C57.3238 150.878 63.12 149.246 69.427 147.26C70.6615 146.87 71.9172 146.465 73.18 146.047L73.2013 145.259Z" fill="#FF7E07"/>
</g>
</g>
</g>
<g id="Group_256">
<g id="Group_257">
<g id="Group_258">
<path id="Vector_40" d="M47.6455 144.209C52.6613 142.506 62.6646 136.753 74.406 128.821C83.1891 122.89 93.2633 115.412 94.6183 113.015C95.3491 111.723 95.4768 110.709 94.9802 109.999C94.2423 108.942 92.3977 108.992 91.5606 109.077C91.3478 109.098 91.1917 109.297 91.2272 109.51C91.2626 109.701 91.4329 109.836 91.6315 109.822C92.4545 109.744 93.8947 109.751 94.37 110.425C94.7602 110.986 94.37 111.943 93.9727 112.646C92.8802 114.575 84.4732 121.116 73.9875 128.204C64.9632 134.298 53.236 141.52 47.4043 143.507L47.6455 144.209Z" fill="#FF7E07"/>
</g>
</g>
</g>
<g id="Group_259">
<g id="Group_260">
<g id="Group_261">
<g id="Group_262">
<path id="Vector_41" d="M48.2702 140.478C49.2635 144.947 50.8172 148.949 53.6621 151.872C53.6621 151.872 51.6189 153.652 49.5189 152.702C47.9155 151.978 44.3186 145.181 45.0919 141.308C46.3051 140.492 47.3834 140.151 48.2702 140.478Z" fill="#FF7E07"/>
</g>
</g>
</g>
</g>
</g>
<g id="Group_263">
<g id="Group_264">
<g id="Group_265">
<g id="Group_266">
<g id="Group_267">
<path id="Vector_42" d="M46.7451 104.643L45.837 117.605C45.837 117.605 30.4206 115.405 22.8579 113.476C20.6515 112.915 18.1826 112.192 15.9124 110.986C11.7337 108.765 8.27155 104.898 8.52696 97.3641C8.605 94.9449 9.07323 92.1496 10.0239 88.9003C15.5292 70.0786 24.7521 54.272 24.7521 54.272C36.6213 59.3516 35.6209 67.8083 35.6209 67.8083C32.2368 76.8396 24.7521 96.0729 24.7521 96.0729C29.1011 101.387 46.7451 104.643 46.7451 104.643Z" fill="#369FFF"/>
</g>
</g>
</g>
</g>
<g id="Group_268">
<g id="Group_269">
<g id="Group_270">
<path id="Vector_43" d="M24.7528 96.4773C24.6818 96.4773 24.6038 96.456 24.54 96.4134C23.2275 95.6046 19.6589 94.7604 19.6235 94.7533C19.4035 94.7036 19.2687 94.4837 19.3255 94.2709C19.3751 94.0509 19.5951 93.9232 19.8079 93.9729C19.9356 94.0013 22.44 94.5901 24.093 95.2996C23.8518 94.7604 23.4545 94.1857 22.9082 93.5614C22.7592 93.3911 22.7805 93.1428 22.9437 92.9938C23.114 92.8449 23.3623 92.8661 23.5113 93.0293C24.4619 94.1077 25.0011 95.0867 25.1501 96.0161C25.1785 96.1722 25.1075 96.3283 24.9798 96.4134C24.9089 96.456 24.8308 96.4773 24.7528 96.4773Z" fill="#084FC7"/>
</g>
</g>
</g>
<g id="Group_271">
<g id="Group_272">
<g id="Group_273">
<g id="Group_274">
<path id="Vector_44" d="M15.9202 110.986C11.7415 108.765 8.27937 104.899 8.53477 97.3643C11.8408 99.0953 17.6087 103.295 15.9202 110.986Z" fill="#006ED3"/>
</g>
</g>
</g>
</g>
<g id="Group_275">
<g id="Group_276">
<g id="Group_277">
<g id="Group_278">
<path id="Vector_45" d="M37.0549 102.649C37.0194 102.649 36.991 102.642 36.9556 102.635C29.3219 100.663 24.682 96.5482 24.4905 96.3708C24.3557 96.2502 24.3202 96.0516 24.3983 95.8884C29.8468 85.1827 33.2877 76.6835 35.2387 69.1349C35.2954 68.9221 35.5154 68.7873 35.7282 68.8441C35.941 68.9008 36.0758 69.1208 36.0191 69.3336C34.0681 76.8751 30.6485 85.3388 25.2567 95.9664C26.2854 96.8178 30.6556 100.173 37.1542 101.848C37.367 101.905 37.5018 102.124 37.4451 102.337C37.3954 102.529 37.2322 102.649 37.0549 102.649Z" fill="#084FC7"/>
</g>
</g>
</g>
</g>
<g id="Group_279">
<g id="Group_280">
<g id="Group_281">
<g id="Group_282">
<path id="Vector_46" d="M33.9962 75.1439C33.9111 75.1439 33.8188 75.1155 33.7479 75.0588C33.5705 74.9169 33.5421 74.6686 33.684 74.4912L36.5148 70.9368C36.6566 70.7595 36.905 70.7311 37.0823 70.873C37.2597 71.0149 37.2881 71.2632 37.1462 71.4406L34.3154 74.9949C34.2303 75.0871 34.1168 75.1439 33.9962 75.1439Z" fill="#084FC7"/>
</g>
</g>
</g>
</g>
</g>
<g id="Group_283">
<g id="Group_284">
<g id="Group_285">
<g id="Group_286">
<g id="Group_287">
<g id="Group_288">
<g id="Group_289">
<path id="Vector_47" d="M47.1927 42.4737L60.8851 44.4318C69.7816 43.5449 72.6124 40.0048 74.0667 32.5271C74.7975 28.767 74.315 25.4468 73.5985 22.9779C73.414 20.1685 72.7684 17.7422 71.4418 16.1388C65.4327 8.8953 60.1402 9.17908 60.1402 9.17908C57.4514 7.94464 48.569 7.10039 42.709 14.2162C42.5245 14.3723 38.9489 18.1607 38.1259 26.1066C37.3313 33.6836 42.3897 43.3605 47.1927 42.4737Z" fill="#39393B"/>
</g>
</g>
</g>
</g>
</g>
</g>
</g>
<g id="Group_290">
<g id="Group_291">
<g id="Group_292">
<g id="Group_293">
<path id="Vector_48" d="M54.8403 11.1656C54.8403 11.1656 56.2663 -1.46265 45.0569 0.140709C37.7354 1.1836 33.202 11.1088 39.8992 15.6139C46.5964 20.1189 54.8403 11.1656 54.8403 11.1656Z" fill="#39393B"/>
</g>
</g>
</g>
</g>
<g id="Group_294">
<path id="Vector_49" d="M41.0282 16.9123C40.9715 16.9123 40.9147 16.8981 40.858 16.8698C40.6877 16.7775 40.6239 16.5576 40.7161 16.3873C43.3127 11.6695 47.016 9.5837 49.6623 8.66141C52.5356 7.66818 54.7703 7.78878 54.8626 7.78878C55.0612 7.80297 55.2102 7.96615 55.196 8.16479C55.1818 8.36344 55.0186 8.51243 54.82 8.49824C54.7349 8.49114 46.0866 8.09385 41.3404 16.7279C41.2695 16.8414 41.1489 16.9123 41.0282 16.9123Z" fill="#006ED3"/>
</g>
<g id="Group_295">
<g id="Group_296">
<g id="Group_297">
<g id="Group_298">
<g id="Group_299">
<g id="Group_300">
<g id="Group_301">
<g id="Group_302">
<g id="Group_303">
<path id="Vector_50" d="M48.2635 39.6213C48.2635 39.6213 39.5302 34.7332 41.247 24.5596C42.9639 14.3861 49.6611 8.26352 59.9269 11.2148C59.934 11.2148 58.9337 40.6216 48.2635 39.6213Z" fill="#39393B"/>
</g>
</g>
</g>
</g>
</g>
</g>
</g>
</g>
<g id="Group_304">
<g id="Group_305">
<g id="Group_306">
<g id="Group_307">
<g id="Group_308">
<g id="Group_309">
<g id="Group_310">
<g id="Group_311">
<path id="Vector_51" d="M72.5555 20.9131C72.5555 20.9131 73.4494 29.6464 71.8531 30.9093C70.2639 32.1721 68.7031 28.7171 68.7031 28.7171C68.7031 28.7171 70.8741 21.0124 72.5555 20.9131Z" fill="#39393B"/>
</g>
</g>
</g>
</g>
</g>
</g>
</g>
</g>
<g id="Group_312">
<g id="Group_313">
<g id="Group_314">
<g id="Group_315">
<g id="Group_316">
<g id="Group_317">
<g id="Group_318">
<g id="Group_319">
<g id="Group_320">
<g id="Group_321">
<g id="Group_322">
<path id="Vector_52" d="M68.5328 31.7043C68.5328 31.7043 71.1365 29.4199 72.0021 32.2222C72.8676 35.0245 71.1152 40.1823 67.873 38.813L68.5328 31.7043Z" fill="#D46A43"/>
</g>
</g>
</g>
</g>
</g>
</g>
</g>
</g>
</g>
</g>
<g id="Group_323">
<g id="Group_324">
<g id="Group_325">
<g id="Group_326">
<path id="Vector_53" d="M71.7408 38.1741C71.3861 38.5005 70.9888 38.7842 70.5561 39.0184C68.9172 39.8981 66.7818 40.0045 64.2136 38.6565C64.2136 38.6565 60.9288 34.3856 65.7815 26.8513C65.7815 26.8513 70.2297 25.6807 72.7767 28.3695C73.0604 28.6675 73.3158 29.008 73.5429 29.4053C73.6848 29.6465 73.8054 29.909 73.9189 30.1928C74.8199 32.4843 73.9827 36.138 71.7408 38.1741Z" fill="#FF993A"/>
</g>
</g>
</g>
<g id="Group_327">
<g id="Group_328">
<g id="Group_329">
<g id="Group_330">
<g id="Group_331">
<g id="Group_332">
<g id="Group_333">
<g id="Group_334">
<g id="Group_335">
<g id="Group_336">
<g id="Group_337">
<path id="Vector_54" d="M71.6277 27.4544C71.8334 26.447 72.0392 25.1984 72.174 23.8149C72.1101 23.8433 72.0463 23.8646 71.9753 23.8646C71.6986 23.8859 71.429 23.7724 71.1594 23.5737C71.0388 24.8649 70.8544 26.0355 70.6699 27.0075L71.6277 27.4544Z" fill="white"/>
</g>
</g>
</g>
</g>
</g>
</g>
</g>
</g>
</g>
</g>
</g>
<g id="Group_338">
<g id="Group_339">
<g id="Group_340">
<g id="Group_341">
<g id="Group_342">
<g id="Group_343">
<g id="Group_344">
<g id="Group_345">
<g id="Group_346">
<g id="Group_347">
<g id="Group_348">
<g id="Group_349">
<path id="Vector_55" d="M71.7414 38.1743C71.3867 38.5006 70.9894 38.7844 70.5566 39.0185C72.8056 34.3574 72.8695 30.1007 72.7772 28.3696C73.061 28.6676 73.3164 29.0081 73.5434 29.4054C73.5434 31.3635 73.2526 34.5844 71.7414 38.1743Z" fill="#FF7E07"/>
</g>
</g>
</g>
</g>
</g>
</g>
</g>
</g>
</g>
</g>
</g>
</g>
</g>
<g id="Group_350">
<g id="Group_351">
<g id="Group_352">
<g id="Group_353">
<g id="Group_354">
<g id="Group_355">
<g id="Group_356">
<g id="Group_357">
<g id="Group_358">
<g id="Group_359">
<g id="Group_360">
<path id="Vector_56" d="M60.9422 44.3039L59.8709 51.5261C59.8709 51.5261 55.451 57.1946 45.2207 47.9505C46.3842 45.0133 48.172 41.232 47.7109 38.3374C47.7109 38.3374 48.4558 39.0256 49.747 39.8414C50.0095 40.0117 50.2933 40.1891 50.5913 40.3664C53.2446 41.984 57.3027 44.0485 60.9422 44.3039Z" fill="#EA9B7A"/>
</g>
</g>
</g>
</g>
</g>
</g>
</g>
</g>
</g>
</g>
<g id="Group_361">
<g id="Group_362">
<g id="Group_363">
<g id="Group_364">
<g id="Group_365">
<g id="Group_366">
<g id="Group_367">
<g id="Group_368">
<g id="Group_369">
<g id="Group_370">
<path id="Vector_57" d="M60.9425 44.304L60.4388 47.681C57.452 46.5317 52.2872 44.0415 49.7402 39.8345C50.0027 40.0047 50.2865 40.1821 50.5845 40.3595C53.2449 41.9841 57.303 44.0486 60.9425 44.304Z" fill="#39393B"/>
</g>
</g>
</g>
</g>
</g>
</g>
</g>
</g>
</g>
</g>
</g>
<g id="Group_371">
<g id="Group_372">
<g id="Group_373">
<g id="Group_374">
<g id="Group_375">
<g id="Group_376">
<g id="Group_377">
<g id="Group_378">
<g id="Group_379">
<g id="Group_380">
<path id="Vector_58" d="M70.7546 32.0234C70.6411 32.7683 70.5347 33.4706 70.4212 34.1375C69.5982 39.1179 68.8462 41.7996 67.4628 42.8638C60.4605 48.2343 48.116 38.7419 47.7187 38.4368C47.7116 38.4297 47.7116 38.4297 47.7116 38.4297C47.6691 37.848 47.6407 37.2733 47.6265 36.7128C47.4633 31.9169 48.0522 27.5751 49.1447 23.5241C49.5633 19.1468 52.7487 15.486 57.0551 14.6063C61.5176 13.6982 65.0364 16.1245 67.2145 17.1603C70.4992 18.7353 72.0033 23.5099 71.081 29.8524C70.9675 30.6115 70.861 31.3423 70.7546 32.0234Z" fill="#EA9B7A"/>
</g>
</g>
</g>
</g>
</g>
</g>
</g>
</g>
</g>
</g>
<g id="Group_381">
<g id="Group_382">
<g id="Group_383">
<path id="Vector_59" d="M64.4958 37.8268C60.5796 37.8268 59.0117 34.0809 58.9976 34.0383C58.9266 33.8538 59.0117 33.6481 59.1962 33.5771C59.3807 33.5062 59.5864 33.5913 59.6573 33.7758C59.7283 33.939 61.3671 37.8268 65.638 37.0038C65.8296 36.9683 66.0211 37.096 66.0566 37.2876C66.0921 37.4791 65.9644 37.6636 65.7728 37.7062C65.3188 37.7913 64.8931 37.8268 64.4958 37.8268Z" fill="#39393B"/>
</g>
</g>
</g>
<g id="Group_384">
<g id="Group_385">
<path id="Vector_60" d="M61.4818 24.3047C62.4892 23.957 62.2835 22.4743 61.2193 22.4033C59.4102 22.2827 56.5014 22.3324 56.2602 23.7939C55.9055 25.9293 59.2825 25.0425 61.4179 24.326C61.4392 24.3189 61.4605 24.3118 61.4818 24.3047Z" fill="#39393B"/>
</g>
</g>
<g id="Group_386">
<g id="Group_387">
<path id="Vector_61" d="M66.8244 24.936C66.044 24.2124 66.8315 22.9354 67.8318 23.3043C69.5345 23.9286 72.1807 25.1418 71.8118 26.5749C71.2797 28.6748 68.5412 26.4968 66.874 24.9857C66.8527 24.9644 66.8386 24.9502 66.8244 24.936Z" fill="#39393B"/>
</g>
</g>
<g id="Group_388">
<g id="Group_389">
<g id="Group_390">
<g id="Group_391">
<g id="Group_392">
<path id="Vector_62" d="M61.6086 39.5789C62.3252 39.7563 62.9282 39.6215 62.9708 39.6073C63.0985 39.5789 63.1765 39.4512 63.1481 39.3235C63.1198 39.1958 62.9921 39.1178 62.8644 39.1462C62.8502 39.1462 61.6796 39.4087 60.7928 38.6283C60.6935 38.5431 60.5445 38.5502 60.4593 38.6496C60.3742 38.7489 60.3813 38.8979 60.4806 38.983C60.8424 39.3093 61.2397 39.4867 61.6086 39.5789Z" fill="#D46A43"/>
</g>
</g>
</g>
</g>
</g>
<g id="Group_393">
<g id="Group_394">
<g id="Group_395">
<g id="Group_396">
<g id="Group_397">
<path id="Vector_63" d="M64.0631 34.7123C63.9993 34.6839 63.9567 34.6272 63.9283 34.5633C63.8858 34.4285 63.9567 34.2795 64.0915 34.237L65.8013 33.6765L64.7868 32.6478C64.73 32.591 64.7016 32.513 64.7158 32.435L65.028 29.6043C65.0422 29.4624 65.1699 29.3559 65.3189 29.3772C65.4607 29.3914 65.5672 29.5191 65.5459 29.661L65.2408 32.364L66.4611 33.5985C66.5249 33.6623 66.5533 33.7545 66.532 33.8397C66.5107 33.9248 66.4469 33.9958 66.3618 34.0241L64.2547 34.7194C64.1908 34.7478 64.127 34.7407 64.0631 34.7123Z" fill="#39393B"/>
</g>
</g>
</g>
</g>
</g>
<g id="Group_398">
<g id="Group_399">
<g id="Group_400">
<g id="Group_401">
<g id="Group_402">
<g id="Group_403">
<g id="Group_404">
<g id="Group_405">
<g id="Group_406">
<g id="Group_407">
<g id="Group_408">
<path id="Vector_64" d="M59.6366 32.0018C59.5514 32.5907 58.2673 32.8815 56.7775 32.6616C55.2876 32.4417 54.1454 31.7819 54.2376 31.1931C54.3228 30.6042 55.6069 30.3133 57.0967 30.5333C58.5866 30.7603 59.7217 31.4201 59.6366 32.0018Z" fill="#D46A43"/>
</g>
</g>
</g>
</g>
</g>
</g>
</g>
</g>
</g>
</g>
</g>
<g id="Group_409" opacity="0.8">
<g id="Group_410" opacity="0.8">
<g id="Group_411" opacity="0.8">
<g id="Group_412" opacity="0.8">
<g id="Group_413" opacity="0.8">
<g id="Group_414" opacity="0.8">
<g id="Group_415" opacity="0.8">
<g id="Group_416" opacity="0.8">
<g id="Group_417" opacity="0.8">
<g id="Group_418" opacity="0.8">
<g id="Group_419" opacity="0.8">
<path id="Vector_65" opacity="0.8" d="M70.7545 32.7118C70.641 33.4567 70.5346 34.1591 70.4211 34.826C69.0589 34.5706 68.0586 33.9533 68.1437 33.4071C68.2218 32.8466 69.3711 32.5557 70.7545 32.7118Z" fill="#D46A43"/>
</g>
</g>
</g>
</g>
</g>
</g>
</g>
</g>
</g>
</g>
</g>
<g id="Group_420">
<g id="Group_421">
<g id="Group_422">
<g id="Group_423">
<g id="Group_424">
<g id="Group_425">
<g id="Group_426">
<g id="Group_427">
<g id="Group_428">
<g id="Group_429">
<g id="Group_430">
<path id="Vector_66" d="M61.091 29.9022C60.9704 30.711 60.5092 31.3069 60.0552 31.2431C59.6011 31.1792 59.3386 30.4698 59.4522 29.661C59.5728 28.8522 60.0339 28.2563 60.4879 28.3201C60.942 28.384 61.2116 29.0934 61.091 29.9022Z" fill="#39393B"/>
</g>
</g>
</g>
</g>
</g>
</g>
</g>
</g>
</g>
</g>
<g id="Group_431">
<g id="Group_432">
<g id="Group_433">
<g id="Group_434">
<g id="Group_435">
<g id="Group_436">
<g id="Group_437">
<g id="Group_438">
<g id="Group_439">
<g id="Group_440">
<path id="Vector_67" d="M69.0715 31.0868C68.9508 31.8955 68.4897 32.4915 68.0357 32.4276C67.5816 32.3638 67.3191 31.6543 67.4326 30.8456C67.5532 30.0368 68.0144 29.4408 68.4684 29.5047C68.9225 29.5756 69.185 30.2851 69.0715 31.0868Z" fill="#39393B"/>
</g>
</g>
</g>
</g>
</g>
</g>
</g>
</g>
</g>
</g>
</g>
<g id="Group_441">
<g id="Group_442">
<g id="Group_443">
<g id="Group_444">
<g id="Group_445">
<g id="Group_446">
<g id="Group_447">
<g id="Group_448">
<g id="Group_449">
<g id="Group_450">
<path id="Vector_68" d="M50.8317 35.5566C50.7821 35.6418 49.3561 37.9404 47.7172 38.437C47.7101 38.4299 47.7101 38.4299 47.7101 38.4299C47.6676 37.8482 47.6392 37.2735 47.625 36.713C47.6818 36.706 49.2567 36.6705 50.8317 35.5566Z" fill="#39393B"/>
</g>
</g>
</g>
</g>
</g>
</g>
</g>
</g>
</g>
</g>
<g id="Group_451">
<g id="Group_452">
<g id="Group_453">
<g id="Group_454">
<g id="Group_455">
<g id="Group_456">
<g id="Group_457">
<g id="Group_458">
<g id="Group_459">
<g id="Group_460">
<path id="Vector_69" d="M50.1871 29.7317C50.1871 29.7317 47.6047 24.9216 44.7385 27.9723C42.376 30.4837 44.93 38.5006 49.279 36.358L50.1871 29.7317Z" fill="#EA9B7A"/>
</g>
</g>
</g>
</g>
</g>
</g>
</g>
</g>
</g>
</g>
<g id="Group_461">
<g id="Group_462">
<g id="Group_463">
<g id="Group_464">
<g id="Group_465">
<g id="Group_466">
<g id="Group_467">
<g id="Group_468">
<g id="Group_469">
<g id="Group_470">
<path id="Vector_70" d="M48.9462 35.0457C48.7759 35.0174 48.6553 34.8755 48.6624 34.6981C48.7901 31.3637 46.2148 29.8171 46.1084 29.7532C45.9523 29.661 45.8956 29.4553 45.9878 29.2921C46.08 29.1289 46.2858 29.0792 46.4489 29.1715C46.5695 29.2424 49.4854 30.9806 49.3364 34.7265C49.3293 34.9109 49.1732 35.0528 48.9888 35.0457C48.9746 35.0457 48.9604 35.0457 48.9462 35.0457Z" fill="#39393B"/>
</g>
</g>
</g>
</g>
</g>
</g>
</g>
</g>
</g>
</g>
<g id="Group_471">
<g id="Group_472">
<g id="Group_473">
<g id="Group_474">
<g id="Group_475">
<g id="Group_476">
<g id="Group_477">
<g id="Group_478">
<g id="Group_479">
<g id="Group_480">
<path id="Vector_71" d="M46.1505 32.5765C46.0512 32.5623 45.966 32.5056 45.9093 32.4134C45.817 32.2573 45.8667 32.0515 46.0299 31.9522C46.1789 31.8671 47.5055 31.1009 48.4633 31.5053C48.6336 31.5762 48.7116 31.7748 48.6407 31.9451C48.5697 32.1154 48.3711 32.1934 48.2008 32.1225C47.6474 31.8884 46.6684 32.3495 46.3704 32.5269C46.2995 32.5694 46.2214 32.5836 46.1505 32.5765Z" fill="#39393B"/>
</g>
</g>
</g>
</g>
</g>
</g>
</g>
</g>
</g>
</g>
<g id="Group_481">
<g id="Group_482">
<g id="Group_483">
<g id="Group_484">
<g id="Group_485">
<g id="Group_486">
<g id="Group_487">
<g id="Group_488">
<g id="Group_489">
<g id="Group_490">
<path id="Vector_72" d="M58.1831 34.1374C55.6574 33.1725 54.3875 30.3347 55.3523 27.809C56.3172 25.2834 59.155 24.0135 61.6807 24.9783C64.2063 25.9432 65.4762 28.781 64.5114 31.3066C63.5465 33.8323 60.7087 35.1022 58.1831 34.1374ZM61.4253 25.6452C59.2685 24.8222 56.8422 25.9077 56.0192 28.0644C55.1963 30.2212 56.2817 32.6475 58.4385 33.4705C60.5952 34.2934 63.0215 33.208 63.8445 31.0512C64.6674 28.8945 63.582 26.4682 61.4253 25.6452Z" fill="white"/>
</g>
</g>
</g>
</g>
</g>
</g>
</g>
</g>
</g>
</g>
<g id="Group_491">
<g id="Group_492">
<g id="Group_493">
<g id="Group_494">
<g id="Group_495">
<g id="Group_496">
<g id="Group_497">
<g id="Group_498">
<g id="Group_499">
<g id="Group_500">
<path id="Vector_73" d="M55.5073 28.462C55.4648 28.462 55.4222 28.4478 55.3796 28.4265C52.7263 27.2133 50.2361 28.1356 50.2077 28.1498C50.0233 28.2207 49.8175 28.1285 49.7466 27.9441C49.6756 27.7596 49.7679 27.5539 49.9523 27.4829C50.0658 27.4403 52.7547 26.44 55.6776 27.7809C55.855 27.866 55.933 28.0789 55.855 28.2562C55.784 28.391 55.6492 28.4691 55.5073 28.462Z" fill="white"/>
</g>
</g>
</g>
</g>
</g>
</g>
</g>
</g>
</g>
</g>
<g id="Group_501">
<g id="Group_502">
<g id="Group_503">
<g id="Group_504">
<g id="Group_505">
<g id="Group_506">
<g id="Group_507">
<g id="Group_508">
<g id="Group_509">
<g id="Group_510">
<path id="Vector_74" d="M69.0307 35.3649C66.5051 34.4 65.2351 31.5622 66.2 29.0366C67.1649 26.5109 70.0027 25.241 72.5283 26.2059C75.054 27.1707 76.3239 30.0085 75.359 32.5342C74.4013 35.0598 71.5564 36.3297 69.0307 35.3649ZM72.28 26.8728C70.1233 26.0498 67.6969 27.1352 66.874 29.292C66.051 31.4487 67.1365 33.875 69.2932 34.698C71.4499 35.521 73.8763 34.4355 74.6992 32.2788C75.5222 30.122 74.4367 27.6957 72.28 26.8728Z" fill="white"/>
</g>
</g>
</g>
</g>
</g>
</g>
</g>
</g>
</g>
</g>
<g id="Group_511">
<g id="Group_512">
<g id="Group_513">
<g id="Group_514">
<g id="Group_515">
<g id="Group_516">
<g id="Group_517">
<g id="Group_518">
<g id="Group_519">
<g id="Group_520">
<path id="Vector_75" d="M64.2845 29.2283C64.2277 29.1999 64.1851 29.1574 64.1497 29.1006C64.0432 28.9303 64.0929 28.7104 64.2632 28.604C64.3128 28.5756 65.5047 27.8449 66.7463 28.7955C66.9023 28.9161 66.9307 29.1432 66.8101 29.2993C66.6895 29.4553 66.4625 29.4837 66.3064 29.3631C65.455 28.7104 64.6463 29.207 64.6392 29.207C64.5257 29.2851 64.3909 29.2851 64.2845 29.2283Z" fill="white"/>
</g>
</g>
</g>
</g>
</g>
</g>
</g>
</g>
</g>
</g>
</g>
<g id="Group_521">
<g id="Group_522">
<g id="Group_523">
<g id="Group_524">
<g id="Group_525">
<g id="Group_526">
<g id="Group_527">
<g id="Group_528">
<path id="Vector_76" d="M66.9088 12.7616C69.8885 14.1025 72.2297 16.5856 73.2725 19.6788C73.9252 21.6156 74.4715 24.1767 71.7472 23.8433C64.3122 22.9423 60.3321 15.2234 60.3321 15.2234C60.3321 15.2234 58.8849 22.3321 53.0461 21.4666C47.2073 20.594 47.3917 16.1954 50.712 13.7052C53.415 11.6691 60.3038 9.78194 66.9088 12.7616Z" fill="#39393B"/>
</g>
</g>
</g>
</g>
</g>
</g>
</g>
</g>
<g id="Group_529">
<g id="Group_530">
<g id="Group_531">
<g id="Group_532">
<g id="Group_533">
<g id="Group_534">
<g id="Group_535">
<path id="Vector_77" d="M53.2727 20.6435C53.2727 20.6435 49.9524 24.212 51.1443 28.0501C52.3362 31.8883 52.4143 34.9673 51.1727 37.0318C51.1727 37.0318 50.8535 32.9879 49.3707 29.9231C48.1575 27.4045 47.0224 25.489 47.9021 22.5873C48.5052 20.6009 49.9595 18.6854 53.2727 20.6435Z" fill="#39393B"/>
</g>
</g>
</g>
</g>
</g>
</g>
</g>
<g id="Group_536">
<g id="Group_537">
<g id="Group_538">
<g id="Group_539">
<path id="Vector_78" d="M47.8738 38.0607C45.2985 38.685 43.305 38.3232 41.8293 37.3938C41.5952 37.2448 41.3753 37.0816 41.1624 36.9114C38.0692 34.3219 37.8422 28.9513 39.7364 26.3192C40.4033 25.3899 41.1766 24.7655 41.9925 24.3682C42.2408 24.2405 42.4891 24.1412 42.7374 24.0632C45.937 23.0132 49.4063 24.9358 49.4063 24.9358C53.0387 34.9107 47.8738 38.0607 47.8738 38.0607Z" fill="#FF993A"/>
</g>
</g>
</g>
<g id="Group_540">
<g id="Group_541">
<g id="Group_542">
<g id="Group_543">
<g id="Group_544">
<g id="Group_545">
<path id="Vector_79" d="M56.9345 42.4236C49.4072 40.8841 46.2076 35.4639 46.0586 35.2014C45.938 34.9957 46.0089 34.7261 46.2218 34.6055C46.4275 34.4849 46.6971 34.5558 46.8177 34.7687C46.8674 34.8538 50.7765 41.4233 59.9 41.9199C60.1412 41.9341 60.3257 42.1399 60.3115 42.3811C60.2973 42.6223 60.0916 42.8067 59.8504 42.7926C58.8146 42.7358 57.8426 42.6081 56.9345 42.4236Z" fill="white"/>
</g>
</g>
</g>
</g>
</g>
</g>
<g id="Group_546">
<g id="Group_547">
<g id="Group_548">
<g id="Group_549">
<g id="Group_550">
<g id="Group_551">
<path id="Vector_80" d="M62.2975 42.6793C62.1414 43.4314 61.4036 43.9209 60.6516 43.7648C59.8996 43.6087 59.41 42.8709 59.5661 42.1189C59.7222 41.3669 60.46 40.8773 61.2121 41.0334C61.9641 41.1895 62.4536 41.9202 62.2975 42.6793Z" fill="#243434"/>
</g>
</g>
</g>
</g>
</g>
</g>
<g id="Group_552">
<g id="Group_553">
<g id="Group_554">
<g id="Group_555">
<g id="Group_556">
<g id="Group_557">
<g id="Group_558">
<g id="Group_559">
<g id="Group_560">
<g id="Group_561">
<g id="Group_562">
<g id="Group_563">
<path id="Vector_81" d="M41.829 37.3936C41.5949 37.2446 41.3749 37.0814 41.1621 36.9112C43.5459 31.5193 42.7371 26.8086 41.9851 24.3681C42.2334 24.2404 42.4817 24.141 42.73 24.063C43.5388 26.6454 44.4114 31.6754 41.829 37.3936Z" fill="#FF7E07"/>
</g>
</g>
</g>
</g>
</g>
</g>
</g>
</g>
</g>
</g>
</g>
</g>
</g>
<g id="Group_564">
<g id="Group_565">
<g id="Group_566">
<g id="Group_567">
<g id="Group_568">
<g id="Group_569">
<g id="Group_570">
<g id="Group_571">
<g id="Group_572">
<g id="Group_573">
<g id="Group_574">
<path id="Vector_82" d="M72.3854 17.6568C71.7539 16.472 71.0516 15.6846 70.704 15.2944C70.4131 14.4501 70.1009 13.6555 69.6327 12.9177C68.0577 10.4204 65.5675 8.888 62.2189 8.3701C58.6078 7.80964 55.472 8.52618 52.9038 10.4914C52.1021 11.1015 51.3927 11.818 50.7542 12.5842C49.8744 13.6555 49.1437 14.8403 48.5478 16.0251C46.4762 20.1683 45.9796 24.425 45.9725 24.4818L44.9863 24.3753C45.0289 23.971 46.1427 14.4075 52.2937 9.69678C55.0818 7.56133 58.473 6.78093 62.3679 7.38396C66.0145 7.94443 68.7388 9.63293 70.4698 12.3856C71.4844 13.9748 72.0732 15.7981 72.3854 17.6568Z" fill="white"/>
</g>
</g>
</g>
</g>
</g>
</g>
</g>
</g>
</g>
</g>
</g>
</g>
</g>
</svg>
